<svg id="githubLogotype" xmlns="http://www.w3.org/2000/svg" viewBox="0 0 51 50">
  <circle cx="25.5" cy="25" r="25" fill="black"></circle>
  <path
    d="M25.5 4C13.8975 4 4.5 13.3975 4.5 25C4.5 34.2925 10.5112 42.1413 18.8587 44.9238C19.9087 45.1075 20.3025 44.4775 20.3025 43.9263C20.3025 43.4275 20.2763 41.7738 20.2763 40.015C15 40.9863 13.635 38.7287 13.215 37.5475C12.9788 36.9437 11.955 35.08 11.0625 34.5812C10.3275 34.1875 9.2775 33.2162 11.0363 33.19C12.69 33.1637 13.8713 34.7125 14.265 35.3425C16.155 38.5187 19.1738 37.6263 20.3813 37.075C20.565 35.71 21.1162 34.7913 21.72 34.2662C17.0475 33.7412 12.165 31.93 12.165 23.8975C12.165 21.6138 12.9788 19.7237 14.3175 18.2537C14.1075 17.7287 13.3725 15.5763 14.5275 12.6888C14.5275 12.6888 16.2863 12.1375 20.3025 14.8413C21.9825 14.3688 23.7675 14.1325 25.5525 14.1325C27.3375 14.1325 29.1225 14.3688 30.8025 14.8413C34.8188 12.1112 36.5775 12.6888 36.5775 12.6888C37.7325 15.5763 36.9975 17.7287 36.7875 18.2537C38.1263 19.7237 38.94 21.5875 38.94 23.8975C38.94 31.9562 34.0312 33.7412 29.3588 34.2662C30.12 34.9225 30.7763 36.1825 30.7763 38.1512C30.7763 40.96 30.75 43.2175 30.75 43.9263C30.75 44.4775 31.1438 45.1338 32.1938 44.9238C36.3626 43.5164 39.9852 40.8371 42.5516 37.263C45.1179 33.6889 46.4989 29.4 46.5 25C46.5 13.3975 37.1025 4 25.5 4Z"
    fill="white"
  ></path>
</svg>