<svg
  id="snapchatLogotype"
  xmlns="http://www.w3.org/2000/svg"
  viewBox="0 0 51 50"
>
  <circle cx="25.5" cy="25" r="25" fill="#FEFC00"></circle>
  <path
    fill="#fff"
    d="M41.46 31.859c-.136-.463-.81-.79-.81-.79-.061-.034-.115-.06-.163-.088a12.932 12.932 0 0 1-2.932-1.918 10.054 10.054 0 0 1-1.701-1.932c-.558-.844-.823-1.552-.939-1.933-.061-.251-.054-.347 0-.476.041-.109.17-.21.232-.258.374-.266.98-.66 1.353-.898.32-.211.599-.388.762-.504.524-.367.878-.735 1.089-1.136a1.976 1.976 0 0 0 .095-1.653c-.286-.755-.993-1.211-1.891-1.211-.197 0-.408.02-.612.068-.518.109-1.007.293-1.416.456-.027.013-.06-.014-.06-.041.04-1.014.088-2.374-.021-3.667-.102-1.17-.34-2.156-.735-3.014-.395-.864-.912-1.503-1.313-1.966a7.979 7.979 0 0 0-2.075-1.667C28.894 8.415 27.262 8 25.486 8c-1.776 0-3.402.415-4.837 1.231a8.088 8.088 0 0 0-2.075 1.667c-.401.463-.918 1.102-1.313 1.966-.395.857-.633 1.844-.735 3.014-.109 1.3-.068 2.551-.02 3.667 0 .034-.034.054-.061.04-.409-.156-.898-.34-1.409-.455a2.677 2.677 0 0 0-.612-.068c-.898 0-1.605.456-1.891 1.21-.211.566-.184 1.137.095 1.654.211.401.572.776 1.089 1.136.163.116.435.293.761.504.361.238.953.619 1.327.884.048.034.204.157.259.279.054.136.06.231-.007.497-.116.387-.381 1.081-.932 1.911a10.05 10.05 0 0 1-1.701 1.932c-.816.728-1.803 1.375-2.912 1.919-.054.027-.115.054-.183.095 0 0-.667.34-.79.776-.183.646.307 1.251.81 1.578.823.53 1.83.816 2.408.973.164.04.306.082.443.122.081.028.292.11.38.225.116.143.13.326.17.53.062.34.205.762.627 1.055.462.32 1.054.34 1.795.374.783.027 1.756.068 2.865.435.517.17.98.456 1.524.79 1.129.694 2.53 1.558 4.932 1.558 2.401 0 3.816-.871 4.953-1.565.537-.327 1-.612 1.503-.782 1.109-.368 2.082-.402 2.864-.436.748-.027 1.334-.047 1.796-.374.45-.313.585-.776.64-1.13.034-.17.054-.326.156-.455.082-.109.28-.184.367-.218l.456-.13c.585-.156 1.313-.34 2.198-.843 1.075-.598 1.15-1.34 1.034-1.707Z"
  ></path>
  <path
    fill="#000"
    d="M41.386 31.051c-.223-.605-.646-.929-1.129-1.197a2.79 2.79 0 0 0-.245-.128c-.144-.075-.291-.147-.437-.223-1.504-.797-2.678-1.802-3.492-2.994a6.797 6.797 0 0 1-.6-1.063c-.07-.199-.066-.312-.016-.415a.673.673 0 0 1 .192-.2c.259-.171.525-.344.706-.461.322-.209.577-.374.741-.49.618-.432 1.05-.891 1.32-1.404a2.793 2.793 0 0 0 .137-2.32c-.409-1.076-1.425-1.744-2.656-1.744a3.661 3.661 0 0 0-.975.13 22.808 22.808 0 0 0-.07-2.278c-.232-2.687-1.173-4.096-2.154-5.22a8.586 8.586 0 0 0-2.19-1.762C29.027 8.432 27.34 8 25.5 8c-1.84 0-3.52.432-5.011 1.282a8.555 8.555 0 0 0-2.195 1.766c-.98 1.123-1.922 2.534-2.154 5.22a23.093 23.093 0 0 0-.071 2.276 3.655 3.655 0 0 0-.974-.13c-1.232.001-2.25.67-2.657 1.745a2.797 2.797 0 0 0 .135 2.323c.27.513.702.971 1.32 1.403.163.114.419.28.741.49.174.113.428.279.678.444.087.056.161.13.217.218.053.107.054.222-.023.435a6.725 6.725 0 0 1-.59 1.04c-.796 1.166-1.936 2.153-3.391 2.944-.771.409-1.572.682-1.91 1.602-.256.694-.09 1.484.56 2.15.237.248.513.456.817.618a8.859 8.859 0 0 0 2 .8c.144.038.28.099.404.181.236.207.203.518.518.975.158.236.359.44.592.601.66.457 1.403.485 2.19.515.71.027 1.515.059 2.435.362.38.126.776.37 1.235.654 1.102.677 2.61 1.603 5.132 1.603 2.523 0 4.042-.931 5.151-1.61.455-.28.849-.521 1.219-.644.92-.304 1.725-.334 2.436-.361.786-.03 1.529-.06 2.19-.515.275-.193.505-.444.673-.736.226-.385.22-.654.433-.842.116-.079.244-.137.38-.174a8.892 8.892 0 0 0 2.027-.807c.323-.173.613-.4.859-.672l.008-.01c.608-.651.761-1.418.512-2.095Zm-2.243 1.205c-1.368.756-2.277.675-2.984 1.13-.601.387-.245 1.22-.682 1.522-.536.37-2.122-.026-4.17.65-1.689.558-2.766 2.164-5.805 2.164-3.038 0-4.09-1.603-5.807-2.168-2.044-.677-3.633-.28-4.17-.65-.436-.301-.082-1.135-.682-1.522-.708-.455-1.617-.374-2.984-1.126-.87-.48-.377-.778-.086-.919 4.954-2.398 5.745-6.102 5.78-6.377.042-.333.09-.594-.277-.933-.354-.327-1.924-1.299-2.36-1.603-.721-.504-1.038-1.006-.804-1.625.163-.427.562-.588.98-.588.133 0 .265.015.394.044.791.172 1.56.568 2.004.675a.706.706 0 0 0 .163.022c.238 0 .32-.12.305-.39-.051-.866-.174-2.554-.037-4.131.187-2.17.886-3.245 1.717-4.196.399-.457 2.273-2.438 5.859-2.438 3.585 0 5.464 1.973 5.863 2.428.832.951 1.532 2.026 1.717 4.196.137 1.577.02 3.266-.036 4.13-.02.286.067.391.304.391.055 0 .11-.008.163-.022.445-.107 1.213-.503 2.005-.675.129-.029.26-.044.393-.044.421 0 .818.163.981.588.234.619-.081 1.121-.803 1.625-.436.304-2.007 1.275-2.36 1.603-.368.339-.32.6-.277.933.035.28.825 3.983 5.78 6.378.293.146.787.443-.084.928Z"
  ></path>
  <path
    fill="#0C0C0C"
    d="M41.386 31.051c-.223-.605-.646-.929-1.129-1.197a2.79 2.79 0 0 0-.245-.128c-.144-.075-.291-.147-.437-.223-1.504-.797-2.678-1.802-3.492-2.994a6.797 6.797 0 0 1-.6-1.063c-.07-.199-.066-.312-.016-.415a.673.673 0 0 1 .192-.2c.259-.171.525-.344.706-.461.322-.209.577-.374.741-.49.618-.432 1.05-.891 1.32-1.404a2.793 2.793 0 0 0 .137-2.32c-.409-1.076-1.425-1.744-2.656-1.744a3.661 3.661 0 0 0-.975.13 22.808 22.808 0 0 0-.07-2.278c-.232-2.687-1.173-4.096-2.154-5.22a8.586 8.586 0 0 0-2.19-1.762C29.027 8.432 27.34 8 25.5 8c-1.84 0-3.52.432-5.011 1.282a8.555 8.555 0 0 0-2.195 1.766c-.98 1.123-1.922 2.534-2.154 5.22a23.093 23.093 0 0 0-.071 2.276 3.655 3.655 0 0 0-.974-.13c-1.232.001-2.25.67-2.657 1.745a2.797 2.797 0 0 0 .135 2.323c.27.513.702.971 1.32 1.403.163.114.419.28.741.49.174.113.428.279.678.444.087.056.161.13.217.218.053.107.054.222-.023.435a6.725 6.725 0 0 1-.59 1.04c-.796 1.166-1.936 2.153-3.391 2.944-.771.409-1.572.682-1.91 1.602-.256.694-.09 1.484.56 2.15.237.248.513.456.817.618a8.859 8.859 0 0 0 2 .8c.144.038.28.099.404.181.236.207.203.518.518.975.158.236.359.44.592.601.66.457 1.403.485 2.19.515.71.027 1.515.059 2.435.362.38.126.776.37 1.235.654 1.102.677 2.61 1.603 5.132 1.603 2.523 0 4.042-.931 5.151-1.61.455-.28.849-.521 1.219-.644.92-.304 1.725-.334 2.436-.361.786-.03 1.529-.06 2.19-.515.275-.193.505-.444.673-.736.226-.385.22-.654.433-.842.116-.079.244-.137.38-.174a8.892 8.892 0 0 0 2.027-.807c.323-.173.613-.4.859-.672l.008-.01c.608-.651.761-1.418.512-2.095Zm-2.243 1.205c-1.368.756-2.277.675-2.984 1.13-.601.387-.245 1.22-.682 1.522-.536.37-2.122-.026-4.17.65-1.689.558-2.766 2.164-5.805 2.164-3.038 0-4.09-1.603-5.807-2.168-2.044-.677-3.633-.28-4.17-.65-.436-.301-.082-1.135-.682-1.522-.708-.455-1.617-.374-2.984-1.126-.87-.48-.377-.778-.086-.919 4.954-2.398 5.745-6.102 5.78-6.377.042-.333.09-.594-.277-.933-.354-.327-1.924-1.299-2.36-1.603-.721-.504-1.038-1.006-.804-1.625.163-.427.562-.588.98-.588.133 0 .265.015.394.044.791.172 1.56.568 2.004.675a.706.706 0 0 0 .163.022c.238 0 .32-.12.305-.39-.051-.866-.174-2.554-.037-4.131.187-2.17.886-3.245 1.717-4.196.399-.457 2.273-2.438 5.859-2.438 3.585 0 5.464 1.973 5.863 2.428.832.951 1.532 2.026 1.717 4.196.137 1.577.02 3.266-.036 4.13-.02.286.067.391.304.391.055 0 .11-.008.163-.022.445-.107 1.213-.503 2.005-.675.129-.029.26-.044.393-.044.421 0 .818.163.981.588.234.619-.081 1.121-.803 1.625-.436.304-2.007 1.275-2.36 1.603-.368.339-.32.6-.277.933.035.28.825 3.983 5.78 6.378.293.146.787.443-.084.928Z"
  ></path>
</svg>