<svg
  id="telegramLogotype"
  xmlns="http://www.w3.org/2000/svg"
  viewBox="0 0 50 50"
>
  <path
    fill="#08C"
    d="M50 25c0 13.807-11.193 25-25 25S0 38.807 0 25 11.193 0 25 0s25 11.193 25 25Zm-24.104-6.544c-2.432 1.012-7.291 3.105-14.58 6.28-1.183.47-1.803.931-1.86 1.381-.095.761.858 1.06 2.155 1.469.177.055.36.113.547.174 1.277.415 2.994.9 3.886.92.81.017 1.714-.317 2.712-1.002 6.809-4.597 10.324-6.92 10.545-6.97.155-.035.371-.08.517.05.147.13.132.376.117.442-.095.402-3.835 3.88-5.77 5.679-.603.56-1.031.959-1.119 1.05-.196.203-.396.396-.588.58-1.185 1.144-2.075 2.001.05 3.401 1.02.673 1.838 1.23 2.652 1.784.89.606 1.778 1.21 2.927 1.964.292.191.572.39.844.585 1.036.738 1.966 1.402 3.116 1.296.668-.062 1.358-.69 1.709-2.563.828-4.428 2.456-14.02 2.832-17.974a4.413 4.413 0 0 0-.042-.984c-.033-.195-.103-.472-.355-.677-.3-.243-.763-.294-.97-.29-.94.016-2.382.518-9.325 3.405Z"
  ></path>
</svg>