<svg id="tiktokLogotype" xmlns="http://www.w3.org/2000/svg" viewBox="0 0 50 50">
  <rect width="50" height="50" fill="#0E0E0E" rx="15"></rect>
  <path
    fill="#25F4EE"
    d="M26.313 9h3.59c.259 1.296.978 2.93 2.237 4.553 1.233 1.59 2.867 2.697 5.047 2.697v3.625c-3.177 0-5.566-1.475-7.25-3.314v12.377a9.062 9.062 0 1 1-9.062-9.063V23.5a5.438 5.438 0 1 0 5.438 5.438V9Z"
  ></path>
  <path
    fill="#EA445A"
    d="M28.313 11h3.59c.258 1.296.978 2.93 2.237 4.553 1.233 1.59 2.867 2.697 5.047 2.697v3.625c-3.177 0-5.566-1.475-7.25-3.314v12.377a9.062 9.062 0 1 1-9.062-9.063V25.5a5.438 5.438 0 1 0 5.438 5.438V11Z"
  ></path>
  <path
    fill="#fff"
    d="M27.313 10h3.59c.259 1.296.978 2.93 2.237 4.553 1.233 1.59 2.867 2.697 5.047 2.697v3.625c-3.177 0-5.566-1.475-7.25-3.314v12.377a9.062 9.062 0 1 1-9.062-9.063V24.5a5.438 5.438 0 1 0 5.438 5.438V10Z"
  ></path>
</svg>