<svg
  id="whatsAppLogotype"
  xmlns="http://www.w3.org/2000/svg"
  version="1.1"
  x="0px"
  y="0px"
  viewBox="0 0 50 50"
>
  <rect width="50" height="50" fill="url(#asnap)" rx="15"></rect>
  <path
    fill="#fff"
    d="M35.652 14.217A14.235 14.235 0 0 0 25.49 10c-7.917 0-14.366 6.449-14.373 14.366 0 2.535.662 5.002 1.915 7.186L11 39l7.62-1.998a14.38 14.38 0 0 0 6.87 1.75h.007c7.916 0 14.365-6.45 14.372-14.373a14.316 14.316 0 0 0-4.217-10.162ZM25.49 36.32c-2.15 0-4.252-.579-6.084-1.668l-.434-.261-4.52 1.185 1.206-4.41-.283-.455a11.892 11.892 0 0 1-1.826-6.352c0-6.573 5.36-11.934 11.948-11.934a11.89 11.89 0 0 1 8.447 3.5 11.883 11.883 0 0 1 3.493 8.447C37.43 30.966 32.07 36.32 25.49 36.32Zm6.552-8.943c-.358-.18-2.122-1.048-2.453-1.172-.33-.117-.572-.179-.806.18-.241.358-.93 1.17-1.137 1.405-.207.241-.42.269-.778.09-.359-.18-1.516-.558-2.887-1.785-1.068-.95-1.785-2.129-1.998-2.487-.207-.358-.021-.552.158-.73.159-.16.358-.42.538-.628.179-.206.24-.358.358-.599.117-.241.062-.448-.028-.627-.09-.18-.806-1.95-1.109-2.666-.29-.703-.586-.607-.806-.614-.207-.013-.448-.013-.69-.013-.24 0-.626.09-.957.447-.33.359-1.254 1.227-1.254 2.998 0 1.77 1.289 3.472 1.468 3.713.179.241 2.528 3.866 6.132 5.423.854.372 1.523.592 2.046.758.861.275 1.64.234 2.26.144.689-.103 2.122-.868 2.425-1.708.297-.841.297-1.558.207-1.71-.09-.15-.33-.24-.689-.42Z"
  ></path>
  <defs>
    <linearGradient
      id="asnap"
      x1="50"
      x2="50"
      y1="50"
      y2="0"
      gradientUnits="userSpaceOnUse"
    >
      <stop stop-color="#20B038"></stop>
      <stop offset="1" stop-color="#60D66A"></stop>
    </linearGradient>
  </defs>
</svg>